<!-- <svg xmlns="http://www.w3.org/2000/svg" viewBox="0 0 1920 953" preserveAspectRatio="xMidYMid" width="1920" height="953" xmlns:xlink="http://www.w3.org/1999/xlink" style="shape-rendering:auto;display:block;background-position-x:0%;background-position-y:0%;background-size:auto;background-origin:padding-box;background-clip:border-box;background:scroll rgb(255, 255, 255) none  repeat;width:1920px;height:953px;;animation:none"><g><g transform="matrix(1,0,0,1,0,0)" style="transform:matrix(1, 0, 0, 1, 0, 0);;animation:none"><path fill="#8aaee0" d="M-320 -304A160 160 0 0 1 0 -304A160 160 0 0 1 320 -304A160 160 0 0 1 640 -304A160 160 0 0 1 960 -304A160 160 0 0 1 1280 -304A160 160 0 0 1 1600 -304A160 160 0 0 1 1920 -304A160 160 0 0 1 2240 -304L-320 -304" transform="matrix(1,0,0,1,0,0)" style="fill:rgb(138, 174, 224);transform:matrix(1, 0, 0, 1, 0, 0);;animation:none"></path></g>
<g transform="matrix(1,0,0,1,0,8.69407844543457)" style="transform:matrix(1, 0, 0, 1, 0, 8.69408);;animation:none"><path fill="#86aadc" d="M-160 -240A160 160 0 0 1 160 -240A160 160 0 0 1 480 -240A160 160 0 0 1 800 -240A160 160 0 0 1 1120 -240A160 160 0 0 1 1440 -240A160 160 0 0 1 1760 -240A160 160 0 0 1 2080 -240A160 160 0 0 1 2400 -240L-160 -240" transform="matrix(1,0,0,1,14.170467376708984,0)" style="fill:rgb(134, 170, 220);transform:matrix(1, 0, 0, 1, 14.1705, 0);;animation:none"></path></g>
<g transform="matrix(1,0,0,1,0,15.958056449890137)" style="transform:matrix(1, 0, 0, 1, 0, 15.9581);;animation:none"><path fill="#83a6d8" d="M-320 -176A160 160 0 0 1 0 -176A160 160 0 0 1 320 -176A160 160 0 0 1 640 -176A160 160 0 0 1 960 -176A160 160 0 0 1 1280 -176A160 160 0 0 1 1600 -176A160 160 0 0 1 1920 -176A160 160 0 0 1 2240 -176L-320 -176" transform="matrix(1,0,0,1,46.0625,0)" style="fill:rgb(131, 166, 216);transform:matrix(1, 0, 0, 1, 46.0625, 0);;animation:none"></path></g>
<g transform="matrix(1,0,0,1,0,5.953926086425781)" style="transform:matrix(1, 0, 0, 1, 0, 5.95393);;animation:none"><path fill="#7fa2d4" d="M-160 -112A160 160 0 0 1 160 -112A160 160 0 0 1 480 -112A160 160 0 0 1 800 -112A160 160 0 0 1 1120 -112A160 160 0 0 1 1440 -112A160 160 0 0 1 1760 -112A160 160 0 0 1 2080 -112A160 160 0 0 1 2400 -112L-160 -112" transform="matrix(1,0,0,1,84.96643829345703,0)" style="fill:rgb(127, 162, 212);transform:matrix(1, 0, 0, 1, 84.9664, 0);;animation:none"></path></g>
<g transform="matrix(1,0,0,1,0,-0.17471911013126373)" style="transform:matrix(1, 0, 0, 1, 0, -0.174719);;animation:none"><path fill="#7b9ed0" d="M-320 -48A160 160 0 0 1 0 -48A160 160 0 0 1 320 -48A160 160 0 0 1 640 -48A160 160 0 0 1 960 -48A160 160 0 0 1 1280 -48A160 160 0 0 1 1600 -48A160 160 0 0 1 1920 -48A160 160 0 0 1 2240 -48L-320 -48" transform="matrix(1,0,0,1,122.90973663330078,0)" style="fill:rgb(123, 158, 208);transform:matrix(1, 0, 0, 1, 122.91, 0);;animation:none"></path></g>
<g transform="matrix(1,0,0,1,0,-11.298185348510742)" style="transform:matrix(1, 0, 0, 1, 0, -11.2982);;animation:none"><path fill="#789acc" d="M-160 16A160 160 0 0 1 160 16A160 160 0 0 1 480 16A160 160 0 0 1 800 16A160 160 0 0 1 1120 16A160 160 0 0 1 1440 16A160 160 0 0 1 1760 16A160 160 0 0 1 2080 16A160 160 0 0 1 2400 16L-160 16" transform="matrix(1,0,0,1,151.5763702392578,0)" style="fill:rgb(120, 154, 204);transform:matrix(1, 0, 0, 1, 151.576, 0);;animation:none"></path></g>
<g transform="matrix(1,0,0,1,0,-15.590142250061035)" style="transform:matrix(1, 0, 0, 1, 0, -15.5901);;animation:none"><path fill="#7497c7" d="M-320 80A160 160 0 0 1 0 80A160 160 0 0 1 320 80A160 160 0 0 1 640 80A160 160 0 0 1 960 80A160 160 0 0 1 1280 80A160 160 0 0 1 1600 80A160 160 0 0 1 1920 80A160 160 0 0 1 2240 80L-320 80" transform="matrix(1,0,0,1,158.94789123535156,0)" style="fill:rgb(116, 151, 199);transform:matrix(1, 0, 0, 1, 158.948, 0);;animation:none"></path></g>
<g transform="matrix(1,0,0,1,0,-3.5924816131591797)" style="transform:matrix(1, 0, 0, 1, 0, -3.59248);;animation:none"><path fill="#7093c3" d="M-160 144A160 160 0 0 1 160 144A160 160 0 0 1 480 144A160 160 0 0 1 800 144A160 160 0 0 1 1120 144A160 160 0 0 1 1440 144A160 160 0 0 1 1760 144A160 160 0 0 1 2080 144A160 160 0 0 1 2400 144L-160 144" transform="matrix(1,0,0,1,139.0138397216797,0)" style="fill:rgb(112, 147, 195);transform:matrix(1, 0, 0, 1, 139.014, 0);;animation:none"></path></g>
<g transform="matrix(1,0,0,1,0,0.7603622674942017)" style="transform:matrix(1, 0, 0, 1, 0, 0.760362);;animation:none"><path fill="#6d8fbf" d="M-320 208A160 160 0 0 1 0 208A160 160 0 0 1 320 208A160 160 0 0 1 640 208A160 160 0 0 1 960 208A160 160 0 0 1 1280 208A160 160 0 0 1 1600 208A160 160 0 0 1 1920 208A160 160 0 0 1 2240 208L-320 208" transform="matrix(1,0,0,1,104.53863525390625,0)" style="fill:rgb(109, 143, 191);transform:matrix(1, 0, 0, 1, 104.539, 0);;animation:none"></path></g>
<g transform="matrix(1,0,0,1,0,13.35407543182373)" style="transform:matrix(1, 0, 0, 1, 0, 13.3541);;animation:none"><path fill="#698bbb" d="M-160 272A160 160 0 0 1 160 272A160 160 0 0 1 480 272A160 160 0 0 1 800 272A160 160 0 0 1 1120 272A160 160 0 0 1 1440 272A160 160 0 0 1 1760 272A160 160 0 0 1 2080 272A160 160 0 0 1 2400 272L-160 272" transform="matrix(1,0,0,1,65.15906524658203,0)" style="fill:rgb(105, 139, 187);transform:matrix(1, 0, 0, 1, 65.1591, 0);;animation:none"></path></g>
<g transform="matrix(1,0,0,1,0,14.759563446044922)" style="transform:matrix(1, 0, 0, 1, 0, 14.7596);;animation:none"><path fill="#6587b7" d="M-320 336A160 160 0 0 1 0 336A160 160 0 0 1 320 336A160 160 0 0 1 640 336A160 160 0 0 1 960 336A160 160 0 0 1 1280 336A160 160 0 0 1 1600 336A160 160 0 0 1 1920 336A160 160 0 0 1 2240 336L-320 336" transform="matrix(1,0,0,1,28.681594848632812,0)" style="fill:rgb(101, 135, 183);transform:matrix(1, 0, 0, 1, 28.6816, 0);;animation:none"></path></g>
<g transform="matrix(1,0,0,1,0,1.8646020889282227)" style="transform:matrix(1, 0, 0, 1, 0, 1.8646);;animation:none"><path fill="#6283b3" d="M-160 400A160 160 0 0 1 160 400A160 160 0 0 1 480 400A160 160 0 0 1 800 400A160 160 0 0 1 1120 400A160 160 0 0 1 1440 400A160 160 0 0 1 1760 400A160 160 0 0 1 2080 400A160 160 0 0 1 2400 400L-160 400" transform="matrix(1,0,0,1,3.964508056640625,0)" style="fill:rgb(98, 131, 179);transform:matrix(1, 0, 0, 1, 3.96451, 0);;animation:none"></path></g>
<g transform="matrix(1,0,0,1,0,-1.8646001815795898)" style="transform:matrix(1, 0, 0, 1, 0, -1.8646);;animation:none"><path fill="#5e7faf" d="M-320 464A160 160 0 0 1 0 464A160 160 0 0 1 320 464A160 160 0 0 1 640 464A160 160 0 0 1 960 464A160 160 0 0 1 1280 464A160 160 0 0 1 1600 464A160 160 0 0 1 1920 464A160 160 0 0 1 2240 464L-320 464" transform="matrix(1,0,0,1,-3.9644813537597656,0)" style="fill:rgb(94, 127, 175);transform:matrix(1, 0, 0, 1, -3.96448, 0);;animation:none"></path></g>
<g transform="matrix(1,0,0,1,0,-14.759563446044922)" style="transform:matrix(1, 0, 0, 1, 0, -14.7596);;animation:none"><path fill="#5a7bab" d="M-160 528A160 160 0 0 1 160 528A160 160 0 0 1 480 528A160 160 0 0 1 800 528A160 160 0 0 1 1120 528A160 160 0 0 1 1440 528A160 160 0 0 1 1760 528A160 160 0 0 1 2080 528A160 160 0 0 1 2400 528L-160 528" transform="matrix(1,0,0,1,-28.6815242767334,0)" style="fill:rgb(90, 123, 171);transform:matrix(1, 0, 0, 1, -28.6815, 0);;animation:none"></path></g>
<g transform="matrix(1,0,0,1,0,-13.354073524475098)" style="transform:matrix(1, 0, 0, 1, 0, -13.3541);;animation:none"><path fill="#5677a7" d="M-320 592A160 160 0 0 1 0 592A160 160 0 0 1 320 592A160 160 0 0 1 640 592A160 160 0 0 1 960 592A160 160 0 0 1 1280 592A160 160 0 0 1 1600 592A160 160 0 0 1 1920 592A160 160 0 0 1 2240 592L-320 592" transform="matrix(1,0,0,1,-65.15901184082031,0)" style="fill:rgb(86, 119, 167);transform:matrix(1, 0, 0, 1, -65.159, 0);;animation:none"></path></g>
<g transform="matrix(1,0,0,1,0,-0.7603635787963867)" style="transform:matrix(1, 0, 0, 1, 0, -0.760364);;animation:none"><path fill="#5373a3" d="M-160 656A160 160 0 0 1 160 656A160 160 0 0 1 480 656A160 160 0 0 1 800 656A160 160 0 0 1 1120 656A160 160 0 0 1 1440 656A160 160 0 0 1 1760 656A160 160 0 0 1 2080 656A160 160 0 0 1 2400 656L-160 656" transform="matrix(1,0,0,1,-104.53853607177734,0)" style="fill:rgb(83, 115, 163);transform:matrix(1, 0, 0, 1, -104.539, 0);;animation:none"></path></g>
<g transform="matrix(1,0,0,1,0,3.592482805252075)" style="transform:matrix(1, 0, 0, 1, 0, 3.59248);;animation:none"><path fill="#4f6f9f" d="M-320 720A160 160 0 0 1 0 720A160 160 0 0 1 320 720A160 160 0 0 1 640 720A160 160 0 0 1 960 720A160 160 0 0 1 1280 720A160 160 0 0 1 1600 720A160 160 0 0 1 1920 720A160 160 0 0 1 2240 720L-320 720" transform="matrix(1,0,0,1,-139.01380920410156,0)" style="fill:rgb(79, 111, 159);transform:matrix(1, 0, 0, 1, -139.014, 0);;animation:none"></path></g>
<g transform="matrix(1,0,0,1,0,15.590141296386719)" style="transform:matrix(1, 0, 0, 1, 0, 15.5901);;animation:none"><path fill="#4b6c9a" d="M-160 784A160 160 0 0 1 160 784A160 160 0 0 1 480 784A160 160 0 0 1 800 784A160 160 0 0 1 1120 784A160 160 0 0 1 1440 784A160 160 0 0 1 1760 784A160 160 0 0 1 2080 784A160 160 0 0 1 2400 784L-160 784" transform="matrix(1,0,0,1,-158.9478759765625,0)" style="fill:rgb(75, 108, 154);transform:matrix(1, 0, 0, 1, -158.948, 0);;animation:none"></path></g>
<g transform="matrix(1,0,0,1,0,11.298188209533691)" style="transform:matrix(1, 0, 0, 1, 0, 11.2982);;animation:none"><path fill="#486896" d="M-320 848A160 160 0 0 1 0 848A160 160 0 0 1 320 848A160 160 0 0 1 640 848A160 160 0 0 1 960 848A160 160 0 0 1 1280 848A160 160 0 0 1 1600 848A160 160 0 0 1 1920 848A160 160 0 0 1 2240 848L-320 848" transform="matrix(1,0,0,1,-151.57640075683594,0)" style="fill:rgb(72, 104, 150);transform:matrix(1, 0, 0, 1, -151.576, 0);;animation:none"></path></g>
<g transform="matrix(1,0,0,1,0,0.17471885681152344)" style="transform:matrix(1, 0, 0, 1, 0, 0.174719);;animation:none"><path fill="#446492" d="M-160 912A160 160 0 0 1 160 912A160 160 0 0 1 480 912A160 160 0 0 1 800 912A160 160 0 0 1 1120 912A160 160 0 0 1 1440 912A160 160 0 0 1 1760 912A160 160 0 0 1 2080 912A160 160 0 0 1 2400 912L-160 912" transform="matrix(1,0,0,1,-122.90983581542969,0)" style="fill:rgb(68, 100, 146);transform:matrix(1, 0, 0, 1, -122.91, 0);;animation:none"></path></g>
<g transform="matrix(1,0,0,1,0,-5.953925609588623)" style="transform:matrix(1, 0, 0, 1, 0, -5.95393);;animation:none"><path fill="#40608e" d="M-320 976A160 160 0 0 1 0 976A160 160 0 0 1 320 976A160 160 0 0 1 640 976A160 160 0 0 1 960 976A160 160 0 0 1 1280 976A160 160 0 0 1 1600 976A160 160 0 0 1 1920 976A160 160 0 0 1 2240 976L-320 976" transform="matrix(1,0,0,1,-84.96653747558594,0)" style="fill:rgb(64, 96, 142);transform:matrix(1, 0, 0, 1, -84.9665, 0);;animation:none"></path></g>
<g transform="matrix(1,0,0,1,0,-15.958056449890137)" style="transform:matrix(1, 0, 0, 1, 0, -15.9581);;animation:none"><path fill="#3d5c8a" d="M-160 1040A160 160 0 0 1 160 1040A160 160 0 0 1 480 1040A160 160 0 0 1 800 1040A160 160 0 0 1 1120 1040A160 160 0 0 1 1440 1040A160 160 0 0 1 1760 1040A160 160 0 0 1 2080 1040A160 160 0 0 1 2400 1040L-160 1040" transform="matrix(1,0,0,1,-46.06260681152344,0)" style="fill:rgb(61, 92, 138);transform:matrix(1, 0, 0, 1, -46.0626, 0);;animation:none"></path></g>
<g transform="matrix(1,0,0,1,0,-8.694080352783203)" style="transform:matrix(1, 0, 0, 1, 0, -8.69408);;animation:none"><path fill="#395886" d="M-320 1104A160 160 0 0 1 0 1104A160 160 0 0 1 320 1104A160 160 0 0 1 640 1104A160 160 0 0 1 960 1104A160 160 0 0 1 1280 1104A160 160 0 0 1 1600 1104A160 160 0 0 1 1920 1104A160 160 0 0 1 2240 1104L-320 1104" transform="matrix(1,0,0,1,-14.1705322265625,0)" style="fill:rgb(57, 88, 134);transform:matrix(1, 0, 0, 1, -14.1705, 0);;animation:none"></path></g>
<g></g></g></svg> -->

<!-- <svg xmlns="http://www.w3.org/2000/svg" viewBox="0 0 1920 953" preserveAspectRatio="xMidYMid" width="1920" height="953" xmlns:xlink="http://www.w3.org/1999/xlink" style="shape-rendering:auto;display:block;background-position-x:0%;background-position-y:0%;background-size:auto;background-origin:padding-box;background-clip:border-box;background:scroll rgb(255, 255, 255) none  repeat;width:1920px;height:953px;;animation:none"><g><defs><linearGradient gradientUnits="userSpaceOnUse" y2="0" y1="0" x2="1920" x1="935" id="ldbk-photon-ca780xlr0a-lg"><stop offset="0" stop-color="#395886"></stop>
<stop offset="1" stop-color="#b1c9ef"></stop></linearGradient>
<mask id="ldbk-photon-ca780xlr0a-mask"><g><path fill="#fff" d="M2220 -0.5 L965.8733656258395 -0.5 A15 15 0 0 1 965.8733656258395 30.5 L2220 30.5" transform="matrix(1,0,0,1,31.979751586914062,0)" style="fill:rgb(255, 255, 255);transform:matrix(1, 0, 0, 1, 31.9798, 0);;animation:none"></path>
<path fill="#000" d="M1981.857058138667 -0.5 L2013.7141162773341 -0.5 A15 15 0 0 1 2013.7141162773341 30.5 L1981.857058138667 30.5 A15 15 0 0 1 1981.857058138667 -0.5" transform="matrix(1,0,0,1,0,0)" opacity="1" style="fill:rgb(0, 0, 0);transform:matrix(1, 0, 0, 1, 0, 0);;animation:none"></path>
<path fill="#fff" d="M2220 29.5 L921.4846723568746 29.5 A15 15 0 0 0 921.4846723568746 60.5 L2220 60.5" transform="matrix(1,0,0,1,-27.711191177368164,0)" style="fill:rgb(255, 255, 255);transform:matrix(1, 0, 0, 1, -27.7112, 0);;animation:none"></path>
<path fill="#fff" d="M973.2719421583386 29.5 L985.7854465161648 29.5 A15 15 0 0 1 985.7854465161648 60.5 L973.2719421583386 60.5 A15 15 0 0 1 973.2719421583386 29.5" transform="matrix(1,0,0,1,0,0)" opacity="1" style="fill:rgb(255, 255, 255);transform:matrix(1, 0, 0, 1, 0, 0);;animation:none"></path>
<path fill="#fff" d="M2220 59.5 L942.3978426102481 59.5 A15 15 0 0 1 942.3978426102481 90.5 L2220 90.5" transform="matrix(1,0,0,1,0.8872730135917664,0)" style="fill:rgb(255, 255, 255);transform:matrix(1, 0, 0, 1, 0.887273, 0);;animation:none"></path>
<path fill="#000" d="M1960.5507575217107 59.5 L1971.1015150434214 59.5 A15 15 0 0 1 1971.1015150434214 90.5 L1960.5507575217107 90.5 A15 15 0 0 1 1960.5507575217107 59.5" transform="matrix(1,0,0,1,-403.81451416015625,0)" opacity="1" style="fill:rgb(0, 0, 0);transform:matrix(1, 0, 0, 1, -403.815, 0);;animation:none"></path>
<path fill="#fff" d="M2220 89.5 L926.0640548958622 89.5 A15 15 0 0 0 926.0640548958622 120.5 L2220 120.5" transform="matrix(1,0,0,1,-13.75684928894043,0)" style="fill:rgb(255, 255, 255);transform:matrix(1, 0, 0, 1, -13.7568, 0);;animation:none"></path>
<path fill="#fff" d="M977.5421776828521 89.5 L1016.627773225763 89.5 A15 15 0 0 1 1016.627773225763 120.5 L977.5421776828521 120.5 A15 15 0 0 1 977.5421776828521 89.5" transform="matrix(1,0,0,1,0,0)" opacity="0.625" style="fill:rgb(255, 255, 255);transform:matrix(1, 0, 0, 1, 0, 0);opacity:0.625;;animation:none"></path>
<path fill="#fff" d="M2220 119.5 L932.7919670168001 119.5 A15 15 0 0 1 932.7919670168001 150.5 L2220 150.5" transform="matrix(1,0,0,1,26.8762264251709,0)" style="fill:rgb(255, 255, 255);transform:matrix(1, 0, 0, 1, 26.8762, 0);;animation:none"></path>
<path fill="#000" d="M1969.6377747040908 119.5 L1989.2755494081816 119.5 A15 15 0 0 1 1989.2755494081816 150.5 L1969.6377747040908 150.5 A15 15 0 0 1 1969.6377747040908 119.5" transform="matrix(1,0,0,1,-231.26231384277344,0)" opacity="1" style="fill:rgb(0, 0, 0);transform:matrix(1, 0, 0, 1, -231.262, 0);;animation:none"></path>
<path fill="#fff" d="M2220 149.5 L898.2410358194712 149.5 A15 15 0 0 0 898.2410358194712 180.5 L2220 180.5" transform="matrix(1,0,0,1,-35.54231643676758,0)" style="fill:rgb(255, 255, 255);transform:matrix(1, 0, 0, 1, -35.5423, 0);;animation:none"></path>
<path fill="#fff" d="M970.7922788605284 149.5 L993.8720079771517 149.5 A15 15 0 0 1 993.8720079771517 180.5 L970.7922788605284 180.5 A15 15 0 0 1 970.7922788605284 149.5" transform="matrix(1,0,0,1,0,0)" opacity="0.0892857" style="fill:rgb(255, 255, 255);transform:matrix(1, 0, 0, 1, 0, 0);opacity:0.0892857;;animation:none"></path>
<path fill="#fff" d="M2220 179.5 L922.629596438066 179.5 A15 15 0 0 1 922.629596438066 210.5 L2220 210.5" transform="matrix(1,0,0,1,0.8650172352790833,0)" style="fill:rgb(255, 255, 255);transform:matrix(1, 0, 0, 1, 0.865017, 0);;animation:none"></path>
<path fill="#000" d="M1972.4203081303053 179.5 L1994.8406162606107 179.5 A15 15 0 0 1 1994.8406162606107 210.5 L1972.4203081303053 210.5 A15 15 0 0 1 1972.4203081303053 179.5" transform="matrix(1,0,0,1,-238.5338592529297,0)" opacity="1" style="fill:rgb(0, 0, 0);transform:matrix(1, 0, 0, 1, -238.534, 0);;animation:none"></path>
<path fill="#fff" d="M2220 209.5 L871.6358322399183 209.5 A15 15 0 0 0 871.6358322399183 240.5 L2220 240.5" transform="matrix(1,0,0,1,-24.897716522216797,0)" style="fill:rgb(255, 255, 255);transform:matrix(1, 0, 0, 1, -24.8977, 0);;animation:none"></path>
<path fill="#fff" d="M986.3353847042405 209.5 L1001.8277486810421 209.5 A15 15 0 0 1 1001.8277486810421 240.5 L986.3353847042405 240.5 A15 15 0 0 1 986.3353847042405 209.5" transform="matrix(1,0,0,1,0,0)" opacity="0.982143" style="fill:rgb(255, 255, 255);transform:matrix(1, 0, 0, 1, 0, 0);opacity:0.982143;;animation:none"></path>
<path fill="#fff" d="M2220 239.5 L922.6704563448639 239.5 A15 15 0 0 1 922.6704563448639 270.5 L2220 270.5" transform="matrix(1,0,0,1,22.30815315246582,0)" style="fill:rgb(255, 255, 255);transform:matrix(1, 0, 0, 1, 22.3082, 0);;animation:none"></path>
<path fill="#000" d="M1986.6194253273118 239.5 L2023.2388506546235 239.5 A15 15 0 0 1 2023.2388506546235 270.5 L1986.6194253273118 270.5 A15 15 0 0 1 1986.6194253273118 239.5" transform="matrix(1,0,0,1,-1085.39404296875,0)" opacity="0.714286" style="fill:rgb(0, 0, 0);transform:matrix(1, 0, 0, 1, -1085.39, 0);opacity:0.714286;;animation:none"></path>
<path fill="#fff" d="M2220 269.5 L904.4180115044503 269.5 A15 15 0 0 0 904.4180115044503 300.5 L2220 300.5" transform="matrix(1,0,0,1,-0.19354550540447235,0)" style="fill:rgb(255, 255, 255);transform:matrix(1, 0, 0, 1, -0.193546, 0);;animation:none"></path>
<path fill="#fff" d="M975.4347694996898 269.5 L991.3535074672161 269.5 A15 15 0 0 1 991.3535074672161 300.5 L975.4347694996898 300.5 A15 15 0 0 1 975.4347694996898 269.5" transform="matrix(1,0,0,1,0,0)" opacity="0.669643" style="fill:rgb(255, 255, 255);transform:matrix(1, 0, 0, 1, 0, 0);opacity:0.669643;;animation:none"></path>
<path fill="#fff" d="M2220 299.5 L935.7168287402473 299.5 A15 15 0 0 1 935.7168287402473 330.5 L2220 330.5" transform="matrix(1,0,0,1,39.113624572753906,0)" style="fill:rgb(255, 255, 255);transform:matrix(1, 0, 0, 1, 39.1136, 0);;animation:none"></path>
<path fill="#000" d="M1976.7832593877326 299.5 L2003.5665187754653 299.5 A15 15 0 0 1 2003.5665187754653 330.5 L1976.7832593877326 330.5 A15 15 0 0 1 1976.7832593877326 299.5" transform="matrix(1,0,0,1,-1765.063720703125,0)" opacity="0.267857" style="fill:rgb(0, 0, 0);transform:matrix(1, 0, 0, 1, -1765.06, 0);opacity:0.267857;;animation:none"></path>
<path fill="#fff" d="M2220 329.5 L896.1152105481925 329.5 A15 15 0 0 0 896.1152105481925 360.5 L2220 360.5" transform="matrix(1,0,0,1,-36.077552795410156,0)" style="fill:rgb(255, 255, 255);transform:matrix(1, 0, 0, 1, -36.0776, 0);;animation:none"></path>
<path fill="#fff" d="M988.5589281930472 329.5 L1026.2887684221992 329.5 A15 15 0 0 1 1026.2887684221992 360.5 L988.5589281930472 360.5 A15 15 0 0 1 988.5589281930472 329.5" transform="matrix(1,0,0,1,0,0)" opacity="1" style="fill:rgb(255, 255, 255);transform:matrix(1, 0, 0, 1, 0, 0);;animation:none"></path>
<path fill="#fff" d="M2220 359.5 L927.8953429326982 359.5 A15 15 0 0 1 927.8953429326982 390.5 L2220 390.5" transform="matrix(1,0,0,1,39.214481353759766,0)" style="fill:rgb(255, 255, 255);transform:matrix(1, 0, 0, 1, 39.2145, 0);;animation:none"></path>
<path fill="#000" d="M1982.7308832186347 359.5 L2015.4617664372695 359.5 A15 15 0 0 1 2015.4617664372695 390.5 L1982.7308832186347 390.5 A15 15 0 0 1 1982.7308832186347 359.5" transform="matrix(1,0,0,1,-760.9743041992188,0)" opacity="0.892857" style="fill:rgb(0, 0, 0);transform:matrix(1, 0, 0, 1, -760.974, 0);opacity:0.892857;;animation:none"></path>
<path fill="#fff" d="M2220 389.5 L905.0207199914665 389.5 A15 15 0 0 0 905.0207199914665 420.5 L2220 420.5" transform="matrix(1,0,0,1,-20.098827362060547,0)" style="fill:rgb(255, 255, 255);transform:matrix(1, 0, 0, 1, -20.0988, 0);;animation:none"></path>
<path fill="#fff" d="M962.6048926243528 389.5 L982.3003957900443 389.5 A15 15 0 0 1 982.3003957900443 420.5 L962.6048926243528 420.5 A15 15 0 0 1 962.6048926243528 389.5" transform="matrix(1,0,0,1,0,0)" opacity="1" style="fill:rgb(255, 255, 255);transform:matrix(1, 0, 0, 1, 0, 0);;animation:none"></path>
<path fill="#fff" d="M2220 419.5 L938.6267551389851 419.5 A15 15 0 0 1 938.6267551389851 450.5 L2220 450.5" transform="matrix(1,0,0,1,4.9494194984436035,0)" style="fill:rgb(255, 255, 255);transform:matrix(1, 0, 0, 1, 4.94942, 0);;animation:none"></path>
<path fill="#000" d="M1962.9227108705006 419.5 L1975.8454217410012 419.5 A15 15 0 0 1 1975.8454217410012 450.5 L1962.9227108705006 450.5 A15 15 0 0 1 1962.9227108705006 419.5" transform="matrix(1,0,0,1,-1621.7564697265625,0)" opacity="0.0892851" style="fill:rgb(0, 0, 0);transform:matrix(1, 0, 0, 1, -1621.76, 0);opacity:0.0892851;;animation:none"></path>
<path fill="#fff" d="M2220 449.5 L899.101746857102 449.5 A15 15 0 0 0 899.101746857102 480.5 L2220 480.5" transform="matrix(1,0,0,1,-2.5754928588867188,0)" style="fill:rgb(255, 255, 255);transform:matrix(1, 0, 0, 1, -2.57549, 0);;animation:none"></path>
<path fill="#fff" d="M1000.9573591958026 449.5 L1029.8197087627723 449.5 A15 15 0 0 1 1029.8197087627723 480.5 L1000.9573591958026 480.5 A15 15 0 0 1 1000.9573591958026 449.5" transform="matrix(1,0,0,1,0,0)" opacity="0.848214" style="fill:rgb(255, 255, 255);transform:matrix(1, 0, 0, 1, 0, 0);opacity:0.848214;;animation:none"></path>
<path fill="#fff" d="M2220 479.5 L964.0050521922839 479.5 A15 15 0 0 1 964.0050521922839 510.5 L2220 510.5" transform="matrix(1,0,0,1,0,0)" style="fill:rgb(255, 255, 255);transform:matrix(1, 0, 0, 1, 0, 0);;animation:none"></path>
<path fill="#000" d="M1963.508439663888 479.5 L1977.0168793277762 479.5 A15 15 0 0 1 1977.0168793277762 510.5 L1963.508439663888 510.5 A15 15 0 0 1 1963.508439663888 479.5" transform="matrix(1,0,0,1,-830.0305786132812,0)" opacity="0.714285" style="fill:rgb(0, 0, 0);transform:matrix(1, 0, 0, 1, -830.031, 0);opacity:0.714285;;animation:none"></path>
<path fill="#fff" d="M2220 509.5 L903.9920791180775 509.5 A15 15 0 0 0 903.9920791180775 540.5 L2220 540.5" transform="matrix(1,0,0,1,-24.24372100830078,0)" style="fill:rgb(255, 255, 255);transform:matrix(1, 0, 0, 1, -24.2437, 0);;animation:none"></path>
<path fill="#fff" d="M1012.0075082929201 509.5 L1034.699106039347 509.5 A15 15 0 0 1 1034.699106039347 540.5 L1012.0075082929201 540.5 A15 15 0 0 1 1012.0075082929201 509.5" transform="matrix(1,0,0,1,0,0)" opacity="0.312499" style="fill:rgb(255, 255, 255);transform:matrix(1, 0, 0, 1, 0, 0);opacity:0.312499;;animation:none"></path>
<path fill="#fff" d="M2220 539.5 L962.6935011106118 539.5 A15 15 0 0 1 962.6935011106118 570.5 L2220 570.5" transform="matrix(1,0,0,1,10.362008094787598,0)" style="fill:rgb(255, 255, 255);transform:matrix(1, 0, 0, 1, 10.362, 0);;animation:none"></path>
<path fill="#000" d="M1962.7241991125074 539.5 L1975.448398225015 539.5 A15 15 0 0 1 1975.448398225015 570.5 L1962.7241991125074 570.5 A15 15 0 0 1 1962.7241991125074 539.5" transform="matrix(1,0,0,1,-95.02002716064453,0)" opacity="1" style="fill:rgb(0, 0, 0);transform:matrix(1, 0, 0, 1, -95.02, 0);;animation:none"></path>
<path fill="#fff" d="M2220 569.5 L942.2183492028299 569.5 A15 15 0 0 0 942.2183492028299 600.5 L2220 600.5" transform="matrix(1,0,0,1,-27.913616180419922,0)" style="fill:rgb(255, 255, 255);transform:matrix(1, 0, 0, 1, -27.9136, 0);;animation:none"></path>
<path fill="#fff" d="M1018.1688264015957 569.5 L1051.923458160124 569.5 A15 15 0 0 1 1051.923458160124 600.5 L1018.1688264015957 600.5 A15 15 0 0 1 1018.1688264015957 569.5" transform="matrix(1,0,0,1,0,0)" opacity="0.625" style="fill:rgb(255, 255, 255);transform:matrix(1, 0, 0, 1, 0, 0);opacity:0.625;;animation:none"></path>
<path fill="#fff" d="M2220 599.5 L966.350963917454 599.5 A15 15 0 0 1 966.350963917454 630.5 L2220 630.5" transform="matrix(1,0,0,1,4.815526962280273,0)" style="fill:rgb(255, 255, 255);transform:matrix(1, 0, 0, 1, 4.81553, 0);;animation:none"></path>
<path fill="#000" d="M1968.875371052585 599.5 L1987.75074210517 599.5 A15 15 0 0 1 1987.75074210517 630.5 L1968.875371052585 630.5 A15 15 0 0 1 1968.875371052585 599.5" transform="matrix(1,0,0,1,-1718.775146484375,0)" opacity="0.357143" style="fill:rgb(0, 0, 0);transform:matrix(1, 0, 0, 1, -1718.78, 0);opacity:0.357143;;animation:none"></path>
<path fill="#fff" d="M2220 629.5 L930.5790269796443 629.5 A15 15 0 0 0 930.5790269796443 660.5 L2220 660.5" transform="matrix(1,0,0,1,-41.46588897705078,0)" style="fill:rgb(255, 255, 255);transform:matrix(1, 0, 0, 1, -41.4659, 0);;animation:none"></path>
<path fill="#fff" d="M1029.0217497069743 629.5 L1056.033725733086 629.5 A15 15 0 0 1 1056.033725733086 660.5 L1029.0217497069743 660.5 A15 15 0 0 1 1029.0217497069743 629.5" transform="matrix(1,0,0,1,0,0)" opacity="0.0446429" style="fill:rgb(255, 255, 255);transform:matrix(1, 0, 0, 1, 0, 0);opacity:0.0446429;;animation:none"></path>
<path fill="#fff" d="M2220 659.5 L974.1784751517158 659.5 A15 15 0 0 1 974.1784751517158 690.5 L2220 690.5" transform="matrix(1,0,0,1,26.941608428955078,0)" style="fill:rgb(255, 255, 255);transform:matrix(1, 0, 0, 1, 26.9416, 0);;animation:none"></path>
<path fill="#000" d="M1989.5369533616627 659.5 L2029.0739067233253 659.5 A15 15 0 0 1 2029.0739067233253 690.5 L1989.5369533616627 690.5 A15 15 0 0 1 1989.5369533616627 659.5" transform="matrix(1,0,0,1,-354.5748596191406,0)" opacity="1" style="fill:rgb(0, 0, 0);transform:matrix(1, 0, 0, 1, -354.575, 0);;animation:none"></path>
<path fill="#fff" d="M2220 689.5 L951.3012414231596 689.5 A15 15 0 0 0 951.3012414231596 720.5 L2220 720.5" transform="matrix(1,0,0,1,-35.963348388671875,0)" style="fill:rgb(255, 255, 255);transform:matrix(1, 0, 0, 1, -35.9633, 0);;animation:none"></path>
<path fill="#fff" d="M1025.4075004620868 689.5 L1059.3445354470132 689.5 A15 15 0 0 1 1059.3445354470132 720.5 L1025.4075004620868 720.5 A15 15 0 0 1 1025.4075004620868 689.5" transform="matrix(1,0,0,1,0,0)" opacity="0.982143" style="fill:rgb(255, 255, 255);transform:matrix(1, 0, 0, 1, 0, 0);opacity:0.982143;;animation:none"></path>
<path fill="#fff" d="M2220 719.5 L982.159049207403 719.5 A15 15 0 0 1 982.159049207403 750.5 L2220 750.5" transform="matrix(1,0,0,1,18.853452682495117,0)" style="fill:rgb(255, 255, 255);transform:matrix(1, 0, 0, 1, 18.8535, 0);;animation:none"></path>
<path fill="#000" d="M1967.369220960572 719.5 L1984.738441921144 719.5 A15 15 0 0 1 1984.738441921144 750.5 L1967.369220960572 750.5 A15 15 0 0 1 1967.369220960572 719.5" transform="matrix(1,0,0,1,-1145.6573486328125,0)" opacity="0.714286" style="fill:rgb(0, 0, 0);transform:matrix(1, 0, 0, 1, -1145.66, 0);opacity:0.714286;;animation:none"></path>
<path fill="#fff" d="M2220 749.5 L932.1155627906987 749.5 A15 15 0 0 0 932.1155627906987 780.5 L2220 780.5" transform="matrix(1,0,0,1,-30.392681121826172,0)" style="fill:rgb(255, 255, 255);transform:matrix(1, 0, 0, 1, -30.3927, 0);;animation:none"></path>
<path fill="#fff" d="M1043.1615821183134 749.5 L1057.3962900913307 749.5 A15 15 0 0 1 1057.3962900913307 780.5 L1043.1615821183134 780.5 A15 15 0 0 1 1043.1615821183134 749.5" transform="matrix(1,0,0,1,0,0)" opacity="1" style="fill:rgb(255, 255, 255);transform:matrix(1, 0, 0, 1, 0, 0);;animation:none"></path>
<path fill="#fff" d="M2220 779.5 L989.5391101440974 779.5 A15 15 0 0 1 989.5391101440974 810.5 L2220 810.5" transform="matrix(1,0,0,1,6.835960388183594,0)" style="fill:rgb(255, 255, 255);transform:matrix(1, 0, 0, 1, 6.83596, 0);;animation:none"></path>
<path fill="#000" d="M1966.3589818300875 779.5 L1982.717963660175 779.5 A15 15 0 0 1 1982.717963660175 810.5 L1966.3589818300875 810.5 A15 15 0 0 1 1966.3589818300875 779.5" transform="matrix(1,0,0,1,-579.009033203125,0)" opacity="0.982142" style="fill:rgb(0, 0, 0);transform:matrix(1, 0, 0, 1, -579.009, 0);opacity:0.982142;;animation:none"></path>
<path fill="#fff" d="M2220 809.5 L939.4038855814599 809.5 A15 15 0 0 0 939.4038855814599 840.5 L2220 840.5" transform="matrix(1,0,0,1,-0.2588704228401184,0)" style="fill:rgb(255, 255, 255);transform:matrix(1, 0, 0, 1, -0.25887, 0);;animation:none"></path>
<path fill="#fff" d="M1035.168519900386 809.5 L1046.8745249960634 809.5 A15 15 0 0 1 1046.8745249960634 840.5 L1035.168519900386 840.5 A15 15 0 0 1 1035.168519900386 809.5" transform="matrix(1,0,0,1,0,0)" opacity="1" style="fill:rgb(255, 255, 255);transform:matrix(1, 0, 0, 1, 0, 0);;animation:none"></path>
<path fill="#fff" d="M2220 839.5 L982.9519279793645 839.5 A15 15 0 0 1 982.9519279793645 870.5 L2220 870.5" transform="matrix(1,0,0,1,16.56717300415039,0)" style="fill:rgb(255, 255, 255);transform:matrix(1, 0, 0, 1, 16.5672, 0);;animation:none"></path>
<path fill="#000" d="M1985.122524540605 839.5 L2020.2450490812098 839.5 A15 15 0 0 1 2020.2450490812098 870.5 L1985.122524540605 870.5 A15 15 0 0 1 1985.122524540605 839.5" transform="matrix(1,0,0,1,-585.5182495117188,0)" opacity="1" style="fill:rgb(0, 0, 0);transform:matrix(1, 0, 0, 1, -585.518, 0);;animation:none"></path>
<path fill="#fff" d="M2220 869.5 L958.6059744710974 869.5 A15 15 0 0 0 958.6059744710974 900.5 L2220 900.5" transform="matrix(1,0,0,1,-33.1450309753418,0)" style="fill:rgb(255, 255, 255);transform:matrix(1, 0, 0, 1, -33.145, 0);;animation:none"></path>
<path fill="#fff" d="M1017.3215811904847 869.5 L1037.1351655048088 869.5 A15 15 0 0 1 1037.1351655048088 900.5 L1017.3215811904847 900.5 A15 15 0 0 1 1017.3215811904847 869.5" transform="matrix(1,0,0,1,0,0)" opacity="0.401786" style="fill:rgb(255, 255, 255);transform:matrix(1, 0, 0, 1, 0, 0);opacity:0.401786;;animation:none"></path>
<path fill="#fff" d="M2220 899.5 L960.7411149615848 899.5 A15 15 0 0 1 960.7411149615848 930.5 L2220 930.5" transform="matrix(1,0,0,1,36.00498962402344,0)" style="fill:rgb(255, 255, 255);transform:matrix(1, 0, 0, 1, 36.005, 0);;animation:none"></path>
<path fill="#000" d="M1982.5746969623974 899.5 L2015.1493939247948 899.5 A15 15 0 0 1 2015.1493939247948 930.5 L1982.5746969623974 930.5 A15 15 0 0 1 1982.5746969623974 899.5" transform="matrix(1,0,0,1,-1295.543212890625,0)" opacity="0.535714" style="fill:rgb(0, 0, 0);transform:matrix(1, 0, 0, 1, -1295.54, 0);opacity:0.535714;;animation:none"></path>
<path fill="#fff" d="M2220 929.5 L923.4367396273501 929.5 A15 15 0 0 0 923.4367396273501 960.5 L2220 960.5" transform="matrix(1,0,0,1,-28.97536277770996,0)" style="fill:rgb(255, 255, 255);transform:matrix(1, 0, 0, 1, -28.9754, 0);;animation:none"></path>
<path fill="#fff" d="M1025.4216258860156 929.5 L1036.5265306059107 929.5 A15 15 0 0 1 1036.5265306059107 960.5 L1025.4216258860156 960.5 A15 15 0 0 1 1025.4216258860156 929.5" transform="matrix(1,0,0,1,0,0)" opacity="0.267857" style="fill:rgb(255, 255, 255);transform:matrix(1, 0, 0, 1, 0, 0);opacity:0.267857;;animation:none"></path></g></mask></defs>
<rect mask="url(#ldbk-photon-ca780xlr0a-mask)" fill="url(#ldbk-photon-ca780xlr0a-lg)" height="953" width="1920" y="0" x="0" style="fill:url('#ldbk-photon-ca780xlr0a-lg');;animation:none"></rect>
<g></g></g></svg> -->

<!-- <svg xmlns="http://www.w3.org/2000/svg" viewBox="0 0 1920 953" preserveAspectRatio="xMidYMid" width="1920" height="953" xmlns:xlink="http://www.w3.org/1999/xlink" style="shape-rendering:auto;display:block;background-position-x:0%;background-position-y:0%;background-size:auto;background-origin:padding-box;background-clip:border-box;background:scroll rgb(57, 88, 134) none  repeat;width:1920px;height:953px;;animation:none"><g><path stroke-width="0" fill="#395886" d="M -100 571.51 C -65.45 568.71 -64.93 568.79 -31.61 568.79 S 4.26 563.43 36.77 563.43 S 73.12 562.28 105.16 562.28 S 140.55 574.56 173.55 574.56 S 208.64 557.26 241.94 557.26 S 276.42 565.46 310.32 565.46 S 345.41 570.8 378.71 570.8 S 414.78 555.66 447.1 555.66 S 483.2 569.33 515.48 569.33 S 551.99 561.4 583.87 561.4 S 619.32 559.5 652.26 559.5 S 687.45 554.11 720.65 554.11 S 755.19 559.75 789.03 559.75 S 823.85 565.45 857.42 565.45 S 893.42 564.22 925.81 564.22 S 962.26 574.98 994.19 574.98 S 1029.01 576.36 1062.58 576.36 S 1097.3 572.58 1130.97 572.58 S 1166.3 558.27 1199.35 558.27 S 1235.37 566.21 1267.74 566.21 S 1302.66 564.65 1336.13 564.65 S 1372.29 559.14 1404.52 559.14 S 1440.87 560.63 1472.9 560.63 S 1509.46 560.34 1541.29 560.34 S 1576.7 559.78 1609.68 559.78 S 1644.9 567.55 1678.06 567.55 S 1713.23 575.88 1746.45 575.88 S 1781.78 560.95 1814.84 560.95 S 1849.9 553.13 1883.23 553.13 S 1918.25 568.89 1951.61 568.89 S 1986.64 556.59 2020 556.59 S 2055.71 556.39 2088.39 556.39 L 2020 953 L -100 953 Z" transform="matrix(1,0,0,1,0,0)" style="fill:rgb(57, 88, 134);transform:matrix(1, 0, 0, 1, 0, 0);;animation:none"></path>
<path stroke-width="0" fill="#456991" d="M -100 599.7 C -64.35 581.43 -63.9 596.23 -29.8 596.23 S 5.9 588.6 40.4 588.6 S 76.97 585.65 110.6 585.65 S 146.89 588.04 180.79 588.04 S 217.64 599.68 250.99 599.68 S 286.19 588.75 321.19 588.75 S 357.11 593.22 391.39 593.22 S 426.61 580.1 461.59 580.1 S 497.18 587.29 531.79 587.29 S 568.24 581.7 601.99 581.7 S 637.9 581.44 672.19 581.44 S 708.47 589.51 742.38 589.51 S 778.06 594.2 812.58 594.2 S 849.53 592.1 882.78 592.1 S 918.29 589.47 952.98 589.47 S 989.1 584.36 1023.18 584.36 S 1059.93 592.32 1093.38 592.32 S 1129.85 591.86 1163.58 591.86 S 1199.75 598.36 1233.77 598.36 S 1271.13 585.24 1303.97 585.24 S 1341.43 604.47 1374.17 604.47 S 1409.57 598.24 1444.37 598.24 S 1480.85 583.61 1514.57 583.61 S 1550.85 577.66 1584.77 577.66 S 1621.61 583.25 1654.97 583.25 S 1691.26 585.18 1725.17 585.18 S 1762.5 595.23 1795.36 595.23 S 1832.83 592.82 1865.56 592.82 S 1901.49 595.16 1935.76 595.16 S 1972.19 595.91 2005.96 595.91 S 2042.3 581.37 2076.16 581.37 L 2020 953 L -100 953 Z" transform="matrix(1,0,0,1,1.1340199708938599,0)" style="fill:rgb(69, 105, 145);transform:matrix(1, 0, 0, 1, 1.13402, 0);;animation:none"></path>
<path stroke-width="0" fill="#54799c" d="M -100 621.87 C -61.59 623.56 -62.12 624.88 -27.89 624.88 S 10.13 622.02 44.22 622.02 S 80.87 622.73 116.33 622.73 S 154.17 610.73 188.44 610.73 S 225.76 623.38 260.54 623.38 S 297.42 603.81 332.65 603.81 S 369.81 613.84 404.76 613.84 S 441.84 617.3 476.87 617.3 S 514.48 626.29 548.98 626.29 S 587.26 622.67 621.09 622.67 S 657.98 630.93 693.2 630.93 S 731.35 622.95 765.31 622.95 S 802.79 622.21 837.41 622.21 S 875.68 611.27 909.52 611.27 S 947.53 633.4 981.63 633.4 S 1019.85 600.56 1053.74 600.56 S 1091.73 609.41 1125.85 609.41 S 1162.52 622.45 1197.96 622.45 S 1236.1 621.49 1270.07 621.49 S 1306.4 616.12 1342.18 616.12 S 1378.56 627.66 1414.29 627.66 S 1450.84 615.97 1486.39 615.97 S 1524.73 630.6 1558.5 630.6 S 1596.41 617.74 1630.61 617.74 S 1668.6 614.42 1702.72 614.42 S 1740.25 611.2 1774.83 611.2 S 1810.96 619.21 1846.94 619.21 S 1884.48 622.38 1919.05 622.38 S 1956.39 620.5 1991.16 620.5 S 2028.24 629.54 2063.27 629.54 L 2020 953 L -100 953 Z" transform="matrix(1,0,0,1,3.5863146781921387,0)" style="fill:rgb(84, 121, 156);transform:matrix(1, 0, 0, 1, 3.58631, 0);;animation:none"></path>
<path stroke-width="0" fill="#648aa7" d="M -100 636.1 C -62.01 642.13 -62.39 654.57 -25.87 654.57 S 12.84 656.5 48.25 656.5 S 87.58 650.75 122.38 650.75 S 161.33 632.39 196.5 632.39 S 233.82 656.01 270.63 656.01 S 307.72 635.23 344.76 635.23 S 383.92 630.31 418.88 630.31 S 458.19 655.62 493.01 655.62 S 531.15 649.39 567.13 649.39 S 606.45 624.31 641.26 624.31 S 678.49 632.73 715.38 632.73 S 752.62 636.62 789.51 636.62 S 828.46 642.57 863.64 642.57 S 902.44 632.67 937.76 632.67 S 975.02 645.52 1011.89 645.52 S 1050.41 624.51 1086.01 624.51 S 1123.9 659.03 1160.14 659.03 S 1197.55 645.64 1234.27 645.64 S 1273.44 653.82 1308.39 653.82 S 1345.5 654.91 1382.52 654.91 S 1419.59 636.78 1456.64 636.78 S 1495.65 640.39 1530.77 640.39 S 1568.57 660.93 1604.9 660.93 S 1643.64 658.05 1679.02 658.05 S 1717.06 654.88 1753.15 654.88 S 1792.32 638.56 1827.27 638.56 S 1866.35 661.25 1901.4 661.25 S 1939.48 643.92 1975.52 643.92 S 2013.79 645.9 2049.65 645.9 L 2020 953 L -100 953 Z" transform="matrix(1,0,0,1,6.4136857986450195,0)" style="fill:rgb(100, 138, 167);transform:matrix(1, 0, 0, 1, 6.41369, 0);;animation:none"></path>
<path stroke-width="0" fill="#769bb2" d="M -100 650.05 C -60.36 654.87 -59.7 671.31 -23.74 671.31 S 15.61 672.3 52.52 672.3 S 92.98 682.48 128.78 682.48 S 168.87 662.64 205.04 662.64 S 243.37 672.24 281.29 672.24 S 319.9 670.47 357.55 670.47 S 397.89 681.31 433.81 681.31 S 473.66 668.83 510.07 668.83 S 550.09 682.35 586.33 682.35 S 625.17 669.49 662.59 669.49 S 702.47 676.74 738.85 676.74 S 778.17 654.03 815.11 654.03 S 854.23 686.82 891.37 686.82 S 931.6 688.08 967.63 688.08 S 1006.56 688.55 1043.88 688.55 S 1082.58 666.38 1120.14 666.38 S 1159.54 687.62 1196.4 687.62 S 1234.7 661.89 1272.66 661.89 S 1311.89 680.24 1348.92 680.24 S 1389.41 666.58 1425.18 666.58 S 1465.63 661.67 1501.44 661.67 S 1540.16 666.27 1577.7 666.27 S 1616.59 670.42 1653.96 670.42 S 1692.65 658.3 1730.22 658.3 S 1769.38 678.95 1806.47 678.95 S 1846.03 673.04 1882.73 673.04 S 1923.02 677.78 1958.99 677.78 S 1999.34 648.85 2035.25 648.85 L 2020 953 L -100 953 Z" transform="matrix(1,0,0,1,8.86598014831543,0)" style="fill:rgb(118, 155, 178);transform:matrix(1, 0, 0, 1, 8.86598, 0);;animation:none"></path>
<path stroke-width="0" fill="#89acbd" d="M -100 682.47 C -59.36 681.64 -58.94 709.29 -21.48 709.29 S 19.3 673.68 57.04 673.68 S 98 708.89 135.56 708.89 S 175.51 674.84 214.07 674.84 S 254.41 697.78 292.59 697.78 S 333.59 675.92 371.11 675.92 S 410.37 709.11 449.63 709.11 S 490.15 691.87 528.15 691.87 S 569.07 708.26 606.67 708.26 S 646.67 688.82 685.19 688.82 S 726.18 715.85 763.7 715.85 S 804.16 680.23 842.22 680.23 S 881.82 711.18 920.74 711.18 S 962.09 693.78 999.26 693.78 S 1038.57 709.21 1077.78 709.21 S 1118.18 704.35 1156.3 704.35 S 1196 703.13 1234.81 703.13 S 1275.79 692.58 1313.33 692.58 S 1353.23 713.93 1391.85 713.93 S 1431.81 688.36 1470.37 688.36 S 1511.82 716.37 1548.89 716.37 S 1588.53 683.53 1627.41 683.53 S 1667.53 705.06 1705.93 705.06 S 1746.92 675.61 1784.44 675.61 S 1824.73 698.43 1862.96 698.43 S 1902.7 693.83 1941.48 693.83 S 1982.8 708.7 2020 708.7 S 2060.22 677.43 2098.52 677.43 L 2020 953 L -100 953 Z" transform="matrix(1,0,0,1,10,0)" style="fill:rgb(137, 172, 189);transform:matrix(1, 0, 0, 1, 10, 0);;animation:none"></path>
<path stroke-width="0" fill="#9dbcc8" d="M -100 717.64 C -58.14 717.15 -57.35 730.91 -19.08 730.91 S 23.4 706.16 61.83 706.16 S 102.84 746.17 142.75 746.17 S 183.66 708.05 223.66 708.05 S 266.14 733.1 304.58 733.1 S 345.76 700.53 385.5 700.53 S 428.26 732.44 466.41 732.44 S 506.88 704.86 547.33 704.86 S 588.73 727.99 628.24 727.99 S 668.86 706.11 709.16 706.11 S 751.31 729.13 790.08 729.13 S 831.47 707.68 870.99 707.68 S 912.09 727.94 951.91 727.94 S 992.6 719.16 1032.82 719.16 S 1075.02 741.28 1113.74 741.28 S 1155.34 709.96 1194.66 709.96 S 1235.58 729.22 1275.57 729.22 S 1317.4 712.36 1356.49 712.36 S 1397.05 728.21 1437.4 728.21 S 1478.74 710.86 1518.32 710.86 S 1560.33 730.42 1599.24 730.42 S 1641.19 716.33 1680.15 716.33 S 1721.76 729.54 1761.07 729.54 S 1801.96 712.88 1841.98 712.88 S 1883.63 730.57 1922.9 730.57 S 1964.03 696.6 2003.82 696.6 S 2046.56 718.66 2084.73 718.66 L 2020 953 L -100 953 Z" transform="matrix(1,0,0,1,8.86598014831543,0)" style="fill:rgb(157, 188, 200);transform:matrix(1, 0, 0, 1, 8.86598, 0);;animation:none"></path>
<path stroke-width="0" fill="#b3cdd4" d="M -100 743.09 C -56.95 724.86 -55.93 753.37 -16.54 753.37 S 26.6 720.27 66.93 720.27 S 109.15 764.01 150.39 764.01 S 192.46 726.45 233.86 726.45 S 275.79 728.64 317.32 728.64 S 360.68 725.93 400.79 725.93 S 444.55 770.28 484.25 770.28 S 527.32 722.71 567.72 722.71 S 610.39 771.13 651.18 771.13 S 693.12 774.49 734.65 774.49 S 776.95 769.91 818.11 769.91 S 862.08 741.36 901.57 741.36 S 943.71 723.09 985.04 723.09 S 1027.35 731.03 1068.5 731.03 S 1112.27 765.79 1151.97 765.79 S 1194.36 739.14 1235.43 739.14 S 1279.44 742.99 1318.9 742.99 S 1362.8 728.12 1402.36 728.12 S 1445.85 735.75 1485.83 735.75 S 1529.09 719.66 1569.29 719.66 S 1612.66 757.14 1652.76 757.14 S 1696.27 739.09 1736.22 739.09 S 1778.3 771.7 1819.69 771.7 S 1862.22 738.37 1903.15 738.37 S 1944.95 754 1986.61 754 S 2028.65 729.62 2070.08 729.62 L 2020 953 L -100 953 Z" transform="matrix(1,0,0,1,6.4136857986450195,0)" style="fill:rgb(179, 205, 212);transform:matrix(1, 0, 0, 1, 6.41369, 0);;animation:none"></path>
<path stroke-width="0" fill="#cadee1" d="M -100 765.16 C -55.37 746.16 -54.96 793.61 -13.82 793.61 S 31.29 753.53 72.36 753.53 S 115.85 791.26 158.54 791.26 S 202.12 785.69 244.72 785.69 S 289 800.17 330.89 800.17 S 375.51 787.35 417.07 787.35 S 460.52 783.99 503.25 783.99 S 548.42 766.75 589.43 766.75 S 634.28 791.88 675.61 791.88 S 719.37 756.9 761.79 756.9 S 806.08 787.29 847.97 787.29 S 892.34 803.26 934.15 803.26 S 979.37 762.97 1020.33 762.97 S 1064.45 746.92 1106.5 746.92 S 1149.82 799.14 1192.68 799.14 S 1235.86 766.29 1278.86 766.29 S 1323.32 791.61 1365.04 791.61 S 1409.69 795.93 1451.22 795.93 S 1496.35 794.82 1537.4 794.82 S 1580.67 747.24 1623.58 747.24 S 1666.69 796.14 1709.76 796.14 S 1753.27 764.14 1795.93 764.14 S 1840.28 795.96 1882.11 795.96 S 1925.67 761.89 1968.29 761.89 S 2011.41 785.9 2054.47 785.9 L 2020 953 L -100 953 Z" transform="matrix(1,0,0,1,3.5863142013549805,0)" style="fill:rgb(202, 222, 225);transform:matrix(1, 0, 0, 1, 3.58631, 0);;animation:none"></path>
<path stroke-width="0" fill="#e1eef0" d="M -100 772.27 C -54.35 788.47 -54.81 789.01 -10.92 789.01 S 34.06 785.99 78.15 785.99 S 123.8 788.19 167.23 788.19 S 212.97 815.39 256.3 815.39 S 302.64 817.6 345.38 817.6 S 390.16 773.27 434.45 773.27 S 480.08 823.14 523.53 823.14 S 569.48 816.81 612.61 816.81 S 658.3 816.7 701.68 816.7 S 747.24 780.84 790.76 780.84 S 835.97 823.03 879.83 823.03 S 926.39 782.56 968.91 782.56 S 1014.55 815.63 1057.98 815.63 S 1103.97 772.26 1147.06 772.26 S 1193.65 771.79 1236.13 771.79 S 1281.49 816.91 1325.21 816.91 S 1371.25 814.32 1414.29 814.32 S 1459.41 772.44 1503.36 772.44 S 1548.86 820.41 1592.44 820.41 S 1638.54 784.31 1681.51 784.31 S 1728.22 813.25 1770.59 813.25 S 1817.42 771.64 1859.66 771.64 S 1904.31 827.01 1948.74 827.01 S 1994.56 782.71 2037.82 782.71 L 2020 953 L -100 953 Z" transform="matrix(1,0,0,1,1.1340198516845703,0)" style="fill:rgb(225, 238, 240);transform:matrix(1, 0, 0, 1, 1.13402, 0);;animation:none"></path>
<g></g></g></svg> -->

<svg xmlns="http://www.w3.org/2000/svg" viewBox="0 0 1920 953" preserveAspectRatio="xMidYMid" width="1920" height="953" xmlns:xlink="http://www.w3.org/1999/xlink" style="shape-rendering:auto;display:block;background-position-x:0%;background-position-y:0%;background-size:auto;background-origin:padding-box;background-clip:border-box;background:scroll rgb(255, 255, 255) none  repeat;width:1920px;height:953px;;animation:none"><g><circle fill-opacity="0.4" fill="#395886" r="2143.503907157624" cy="0" cx="0" transform="matrix(0.9950000047683716,0,0,0.9950000047683716,0,0)" style="fill:rgb(57, 88, 134);transform:matrix(0.995, 0, 0, 0.995, 0, 0);;animation:none"></circle>
<circle fill-opacity="0.4" fill="#44628f" r="1948.6399155978397" cy="0" cx="0" transform="matrix(0.9957138299942017,0,0,0.9957138299942017,0,0)" style="fill:rgb(68, 98, 143);transform:matrix(0.995714, 0, 0, 0.995714, 0, 0);;animation:none"></circle>
<circle fill-opacity="0.4" fill="#4f6b98" r="1753.775924038056" cy="0" cx="0" transform="matrix(0.99781733751297,0,0,0.99781733751297,0,0)" style="fill:rgb(79, 107, 152);transform:matrix(0.997817, 0, 0, 0.997817, 0, 0);;animation:none"></circle>
<circle fill-opacity="0.4" fill="#5975a2" r="1558.9119324782719" cy="0" cx="0" transform="matrix(1.0007541179656982,0,0,1.0007541179656982,0,0)" style="fill:rgb(89, 117, 162);transform:matrix(1.00075, 0, 0, 1.00075, 0, 0);;animation:none"></circle>
<circle fill-opacity="0.4" fill="#647fab" r="1364.047940918488" cy="0" cx="0" transform="matrix(1.0033912658691406,0,0,1.0033912658691406,0,0)" style="fill:rgb(100, 127, 171);transform:matrix(1.00339, 0, 0, 1.00339, 0, 0);;animation:none"></circle>
<circle fill-opacity="0.4" fill="#6f89b4" r="1169.1839493587038" cy="0" cx="0" transform="matrix(1.004823923110962,0,0,1.004823923110962,0,0)" style="fill:rgb(111, 137, 180);transform:matrix(1.00482, 0, 0, 1.00482, 0, 0);;animation:none"></circle>
<circle fill-opacity="0.4" fill="#7994be" r="974.3199577989199" cy="0" cx="0" transform="matrix(1.004823923110962,0,0,1.004823923110962,0,0)" style="fill:rgb(121, 148, 190);transform:matrix(1.00482, 0, 0, 1.00482, 0, 0);;animation:none"></circle>
<circle fill-opacity="0.4" fill="#849ec8" r="779.4559662391359" cy="0" cx="0" transform="matrix(1.0033912658691406,0,0,1.0033912658691406,0,0)" style="fill:rgb(132, 158, 200);transform:matrix(1.00339, 0, 0, 1.00339, 0, 0);;animation:none"></circle>
<circle fill-opacity="0.4" fill="#8fa9d1" r="584.5919746793519" cy="0" cx="0" transform="matrix(1.0007541179656982,0,0,1.0007541179656982,0,0)" style="fill:rgb(143, 169, 209);transform:matrix(1.00075, 0, 0, 1.00075, 0, 0);;animation:none"></circle>
<circle fill-opacity="0.4" fill="#9ab3db" r="389.72798311956797" cy="0" cx="0" transform="matrix(0.9978172779083252,0,0,0.9978172779083252,0,0)" style="fill:rgb(154, 179, 219);transform:matrix(0.997817, 0, 0, 0.997817, 0, 0);;animation:none"></circle>
<circle fill-opacity="0.4" fill="#a6bee5" r="194.86399155978398" cy="0" cx="0" transform="matrix(0.9957138299942017,0,0,0.9957138299942017,0,0)" style="fill:rgb(166, 190, 229);transform:matrix(0.995714, 0, 0, 0.995714, 0, 0);;animation:none"></circle>
<circle fill-opacity="0.4" fill="#b1c9ef" r="0" cy="0" cx="0" transform="matrix(0.9950000047683716,0,0,0.9950000047683716,0,0)" style="fill:rgb(177, 201, 239);transform:matrix(0.995, 0, 0, 0.995, 0, 0);;animation:none"></circle>
<g></g></g></svg>